<?xml version="1.0" encoding="utf-8"?><svg xmlns="http://www.w3.org/2000/svg" xmlns:xlink="http://www.w3.org/1999/xlink"><symbol viewBox="0 0 18 18" id="icon_add" xmlns="http://www.w3.org/2000/svg"><path d="M10 8V1H8v7H1v2h7v7h2v-7h7V8z"/></symbol><symbol viewBox="0 0 18 18" id="icon_add_file" xmlns="http://www.w3.org/2000/svg"><path d="M8 15v1H2c-1.1 0-2-.9-2-2V2C0 .9.9 0 2 0h10c1.1 0 2 .9 2 2v6h-2V2H2v12h6v1zM4 6h6V5H4v1zm0 4h4.5V9H4v1zm0-2h6V7H4v1zm14 5h-3v-3h-2v3h-3v2h3v3h2v-3h3v-2z"/></symbol><symbol viewBox="0 0 18 18" id="icon_add_filter" xmlns="http://www.w3.org/2000/svg"><path d="M18 15h-3v3h-2v-3h-3v-2h3v-3h2v3h3v2zm-9-3V9c3.4-.7 6-3.7 6-7.3V0H0v1.6C0 5.2 2.6 8.3 6 9v9l3-2v-4.4"/></symbol><symbol viewBox="0 0 18 18" id="icon_add_folder" xmlns="http://www.w3.org/2000/svg"><path d="M18 3v8h-1V8h-6v3H8v3H1c-.6 0-1-.4-1-1V1c0-.6.4-1 1-1h5c.6 0 1 .4 1 1v1h10c.6 0 1 .4 1 1zm0 10h-3v-3h-2v3h-3v2h3v3h2v-3h3v-2z"/></symbol><symbol viewBox="0 0 18 18" id="icon_add_issue" xmlns="http://www.w3.org/2000/svg"><path d="M17.5 7H11V.5c0-.3-.2-.5-.5-.5h-3c-.3 0-.5.2-.5.5V7H.5c-.3 0-.5.2-.5.5v3c0 .3.2.5.5.5H7v6.5c0 .3.2.5.5.5h3c.3 0 .5-.2.5-.5V11h6.5c.3 0 .5-.2.5-.5v-3c0-.3-.2-.5-.5-.5z"/></symbol><symbol viewBox="0 0 18 18" id="icon_add_page_content" xmlns="http://www.w3.org/2000/svg"><path d="M18 14h-4v4h-2v-4H8v-2h4V8h2v4h4v2zM2 2h10v3.9h2V2c0-1.1-.9-2-2-2H2C.9 0 0 .9 0 2v13c0 1.1.9 2 2 2h4v-2H2V2z"/></symbol><symbol viewBox="0 0 18 18" id="icon_add_page_link" xmlns="http://www.w3.org/2000/svg"><path d="M11.8 16.5c-.6.9-1.6 1.5-2.7 1.5-.5 0-1.1-.1-1.5-.4-.7-.4-1.2-1.1-1.4-1.8s-.2-1.6.2-2.3l1.8-3.1c.6-.9 1.6-1.5 2.8-1.5.5 0 1.1.1 1.5.4.7.4 1.2 1.1 1.4 1.8.2.8.1 1.6-.3 2.3l-.4.7c-.2 0-.5 0-.7-.1-.2-.1-.4-.3-.5-.5l.4-.7c.2-.4.3-.9.2-1.3-.1-.4-.4-.8-.8-1-.3-.2-.6-.2-.9-.2-.6 0-1.2.3-1.5.9l-1.8 3.1c-.2.4-.3.9-.2 1.3.1.4.4.8.8 1 .3.2.6.2.9.2.6 0 1.2-.3 1.5-.8.2.1.4.3.6.4.2 0 .4.1.6.1zm6.1-7.3c-.2-.8-.7-1.4-1.4-1.8-.5-.3-1.1-.4-1.6-.4-1.1 0-2.1.6-2.7 1.5l.6.3c.2 0 .4.2.6.3.3-.5.9-.8 1.5-.8.3 0 .6.1.9.2.4.2.7.6.8 1 .1.4.1.9-.2 1.3L14.6 14c-.5.8-1.6 1.1-2.4.6-.4-.2-.7-.6-.8-1-.1-.4-.1-.9.2-1.3l.4-.7c-.1-.2-.3-.4-.5-.5-.2-.1-.5-.2-.7-.1l-.4.7c-.4.7-.5 1.5-.3 2.3.2.8.7 1.4 1.4 1.8.5.3 1 .4 1.5.4 1.1 0 2.1-.6 2.7-1.5l1.8-3.1c.5-.8.6-1.6.4-2.4zM4.8 15H2V2h10v3.9h2V2c0-1.1-.9-2-2-2H2C.9 0 0 .9 0 2v13c0 1.1.9 2 2 2h2.8v-2z"/></symbol><symbol viewBox="0 0 18 18" id="icon_add_project" xmlns="http://www.w3.org/2000/svg"><path d="M16.3 13.8h-4.5c-.4 0-.7.3-.7.7v.3c0 .4-.3.7-.7.7H7.6c-.4 0-.7-.3-.7-.7v-.3c0-.4-.3-.7-.7-.7H1.7c-.4 0-.7.3-.7.7v2.8c0 .4.3.7.7.7h14.6c.4 0 .7-.3.7-.7v-2.8c0-.4-.3-.7-.7-.7zm0-4.8h-4.5c-.4 0-.7.3-.7.7v.3c0 .4-.3.7-.7.7H7.6c-.4 0-.7-.3-.7-.7v-.3c0-.4-.3-.7-.7-.7H1.7c-.4 0-.7.3-.7.7v2.8c0 .4.3.7.7.7h14.6c.4 0 .7-.3.7-.7V9.7c0-.4-.3-.7-.7-.7zm.4-5.1L14.2.8c-.3-.3-.7-.5-1.2-.5H4.9c-.4 0-.9.2-1.2.5L1.3 3.9c-.2.3-.3.7-.3.9v2.8c0 .4.3.7.7.7h14.6c.4 0 .7-.3.7-.7V4.8c0-.2-.1-.7-.3-.9zm-4.9.2c-.4 0-.7.3-.7.7v.3c0 .4-.3.7-.7.7H7.6c-.4 0-.7-.3-.7-.7v-.3c0-.4-.3-.7-.7-.7H2.5l2.1-2.6c.1-.1.2-.2.4-.2h8.1c.1 0 .3.1.4.2l2.1 2.6h-3.8z"/></symbol><symbol viewBox="0 0 18 18" id="icon_add_space_image" xmlns="http://www.w3.org/2000/svg"><path d="M17.4 11c-.3-.6-.6-.8-.2-1.4.8-1.4 1.1-2.7.6-3.9-.4-.8-1-1.3-1.9-1.7-.2-.1-.5-.4-.5-1 0-.3-.1-.6-.2-.9C14.3-.1 10.6-.7 7 .9 3.5 2.3 1.2 5.3 1.9 7.5c.1.5 0 .9-.3 1.2-1.4 1.6-2 3.4-1.4 4.9.5 1 1.4 1.7 2.6 1.9.7.1.9.3 1.1.9.5 1.8 3.3 2 5.8 1 .6-.2.7 0 .9.1 1.2.6 3.9.8 6.2.3 0 0-1-.4-1.7-1.3-.3-.3-.1-.7.1-.8 1.9-1.3 2.8-3.3 2.2-4.7zm-2.5 1.5c0 .6-.5 1-1 1H5.5c-.6 0-1-.5-1-1V6.9c0-.6.5-1 1-1h1.8l.3-.9c.1-.3.4-.5.7-.5h2.9c.3 0 .6.2.7.5l.1.9h1.8c.6 0 1 .5 1 1v5.6z"/><path d="M9.7 6.9c-1.5 0-2.8 1.2-2.8 2.8 0 1.5 1.2 2.8 2.8 2.8 1.5 0 2.8-1.2 2.8-2.8 0-1.5-1.3-2.8-2.8-2.8zm0 4.5c-1 0-1.7-.8-1.7-1.7C8 8.7 8.7 8 9.7 8s1.7.8 1.7 1.7c0 .9-.8 1.7-1.7 1.7z"/></symbol><symbol viewBox="0 0 18 18" id="icon_alert" xmlns="http://www.w3.org/2000/svg"><path d="M8.9 1C4.5 1 1 4.6 1 8.9c0 4.3 3.5 7.9 7.9 8C13.3 17 17 13.5 17 9s-3.7-8-8.1-8zM10 14H8v-2h2v2zm0-3H8V4h2v7z"/></symbol><symbol viewBox="0 0 18 18" id="icon_assign" xmlns="http://www.w3.org/2000/svg"><path d="M15.3 10h.2c1.4 0 2.5-1.1 2.5-2.5 0-1.3-1-2.4-2.3-2.5-.8-2.9-3.5-5-6.7-5S3.1 2.1 2.3 5C1 5.1 0 6.2 0 7.5 0 8.9 1.1 10 2.5 10h.2c.4.9 1 1.6 1.7 2.3-1.5.9-2.4 2.2-2.4 3.6 0 2.7 14 2.7 14 0 0-1.5-.9-2.8-2.4-3.7.7-.6 1.3-1.4 1.7-2.2zM4 7c0-.8.2-1.5.5-2.2.5.1 1 .2 1.5.2 1.5 0 2.9-.6 4-1.5 1 .9 2.2 1.4 3.6 1.5.2.6.4 1.3.4 2 0 2.8-2.2 5-5 5S4 9.8 4 7z"/></symbol><symbol viewBox="0 0 18 18" id="icon_attach_file" xmlns="http://www.w3.org/2000/svg"><path d="M6.5 18c-1.4 0-2.8-.5-3.9-1.6-1-1-1.6-2.4-1.6-3.9s.6-2.9 1.6-3.9l7.3-7.4c1.6-1.6 4.2-1.6 5.8 0 .8.8 1.2 1.8 1.2 2.9 0 1.1-.4 2.1-1.2 2.9l-7.1 7.1c-1 1-2.7 1-3.7 0-.5-.5-.8-1.1-.8-1.8s.3-1.4.8-1.8L11.4 4l1.4 1.4-6.5 6.5c-.1.1-.2.3-.2.4s.1.3.2.4c.2.2.6.2.9 0l7.1-7.2c.4-.4.6-.9.6-1.5s-.2-1.1-.6-1.5c-.8-.8-2.1-.8-2.9 0L4 10c-.7.7-1 1.6-1 2.5s.4 1.8 1 2.5c1.4 1.4 3.6 1.4 5 0l7.2-7.3 1.4 1.4-7.2 7.3C9.4 17.5 8 18 6.5 18z"/></symbol><symbol viewBox="0 0 18 19" id="icon_backlog" xmlns="http://www.w3.org/2000/svg"><path d="M14.3 0H3.7C1.6 0 0 1.6 0 3.7v10.7c0 2 1.6 3.7 3.7 3.7h10.7c2 0 3.7-1.6 3.7-3.7V3.7C18 1.6 16.4 0 14.3 0zm-2.9 11.7c-1.2 1.5-3 1.6-4.6 1.6-.2 0-.5-.1-.6-.3-.3-.3-.3-.5-.3-1V4.5h1.7v1.4c2.1.2 3.6 1.1 4.2 2.5.5 1.2.4 2.4-.4 3.3z"/><path d="M7.6 7.7v3.8c1.3-.1 1.9-.3 2.5-.9.4-.4.4-.9.2-1.4C10 8.6 9.1 8 7.6 7.7z"/></symbol><symbol viewBox="0 0 18.03 7.7" id="icon_board_beta" xmlns="http://www.w3.org/2000/svg"><path d="M17 7.7H1a1 1 0 01-1-1V1a1 1 0 011-1h16a1 1 0 011 1v5.7a1 1 0 01-1 1zm-11.54-3a2.4 2.4 0 00-.39-1.54 1.22 1.22 0 00-1.14-.56 1.36 1.36 0 00-1.19.56h-.06V1h-.85v5.57h.62l.17-.45h.06a1.36 1.36 0 001.19.56 1.53 1.53 0 001.2-.56 1.94 1.94 0 00.39-1.42zm4.43.11V4.3A1.85 1.85 0 009.44 3a1.8 1.8 0 00-1.25-.45 1.67 1.67 0 00-1.36.57 2.22 2.22 0 00-.52 1.53 2 2 0 00.52 1.48 1.93 1.93 0 001.47.56 3.4 3.4 0 00.74 0 2.9 2.9 0 00.62-.23v-.74A5.46 5.46 0 019 6a3.07 3.07 0 01-.7 0c-.4 0-.68 0-.85-.28a1.19 1.19 0 01-.34-.91h2.78zM12.84 6a2.6 2.6 0 01-.62.11.54.54 0 01-.4-.17.57.57 0 01-.17-.45V3.28h1.14v-.63h-1.14v-.91h-.51l-.28.86-.57.28v.4h.57v2.16c0 .85.39 1.24 1.19 1.24h.45c.17 0 .23-.06.34-.12zm3.81.68V3.9a1.41 1.41 0 00-.4-1 1.59 1.59 0 00-1.14-.34 4.47 4.47 0 00-.73.11 3.09 3.09 0 00-.68.29l.28.62a5.23 5.23 0 01.57-.23 1.86 1.86 0 01.56-.11.76.76 0 01.57.17.81.81 0 01.17.57v.23h-.68a2.38 2.38 0 00-1.42.34 1 1 0 00-.45.91 1.17 1.17 0 00.34.9 1.19 1.19 0 00.91.34 1.52 1.52 0 00.74-.11 2.16 2.16 0 00.56-.51h.06l.17.57h.57zm-2.17-1.76a.65.65 0 00-.29.57.46.46 0 00.17.4.69.69 0 00.46.17 1.09 1.09 0 00.74-.28 1 1 0 00.28-.78v-.3h-.51a2.53 2.53 0 00-.85.22zM8.06 3.16a.73.73 0 00-.62.29 1.25 1.25 0 00-.34.74h1.81a1 1 0 00-.22-.74.82.82 0 00-.63-.29zm-4.37.06A1 1 0 003 3.5a1.63 1.63 0 00-.23 1A1.79 1.79 0 003 5.66a.84.84 0 00.69.34.8.8 0 00.68-.34 1.7 1.7 0 00.23-1c0-.98-.29-1.44-.91-1.44z"/></symbol><symbol viewBox="0 0 18 18" id="icon_bold" xmlns="http://www.w3.org/2000/svg"><path d="M10.4 0c3.7 0 5.5 1.9 5.5 4.8 0 2-.9 3.2-2 3.8v.1c1.1.4 2.4 1.9 2.4 4.1 0 3.6-2.2 5.3-6.1 5.3H2.4c-.2 0-.3-.1-.3-.3v-2.1c0-.2.1-.3.3-.3h1.2c.1 0 .2-.1.2-.2V2.8c0-.1-.1-.2-.2-.2H2.4c-.2 0-.3-.1-.3-.3v-2c.1-.2.2-.3.3-.3h8zM7 2.7c-.1 0-.2.1-.2.2v4.4c0 .1.1.2.2.2h3.3c1.6 0 2.5-1 2.5-2.4s-1-2.4-2.5-2.4H7zm0 7.5c-.1 0-.2.1-.2.2v4.7c0 .1.1.2.2.2h3.5c1.7 0 2.7-1 2.7-2.5s-1-2.5-2.7-2.5H7z"/></symbol><symbol viewBox="0 0 18 18" id="icon_branch" xmlns="http://www.w3.org/2000/svg"><path d="M3.8 6.5C2.3 6.5 1 5.3 1 3.8 1.1 2.2 2.3 1 3.8 1c1.3 0 2.3.8 2.6 2h5.2c.3-1.1 1.4-2 2.6-2C15.7 1 17 2.2 17 3.7c0 1.5-1.2 2.7-2.8 2.7-1.1 0-2-.6-2.4-1.5H6.3c-.5 1-1.4 1.6-2.5 1.6zm13.3 7.8c0 1.5-1.2 2.7-2.8 2.7-1.4 0-2.5-1-2.7-2.3-3.7-.8-6.7-3.5-7.9-6.9h.2c.6 0 1.2-.2 1.7-.4 1.1 2.7 3.5 4.7 6.4 5.4.5-.7 1.3-1.2 2.3-1.2 1.5-.1 2.8 1.1 2.8 2.7zm-1 0c0-1-.8-1.7-1.8-1.7s-1.8.8-1.8 1.7.8 1.7 1.8 1.7 1.8-.8 1.8-1.7z"/></symbol><symbol viewBox="0 0 18 19" id="icon_cacoo" xmlns="http://www.w3.org/2000/svg"><path d="M14.3 0H3.7C1.6 0 0 1.6 0 3.7v10.7c0 2 1.6 3.7 3.7 3.7h10.7c2 0 3.7-1.6 3.7-3.7V3.7C18 1.6 16.4 0 14.3 0zm-2.6 6.7h-.5c-.6 0-1.2 0-1.7.1-.7.2-1.3.5-1.8 1.1-.5.6-.5 1.4 0 2 .5.6 1.1 1 1.9 1.2.7.2 1.4.3 2.1.2v2h-.4c-.8 0-1.5-.1-2.2-.3-1.2-.3-2.3-1-3-2C5 9.7 5.1 8 6 6.7c.8-1 1.9-1.6 3.1-1.8.7-.1 1.4-.2 2.2-.2h.4v2z"/></symbol><symbol viewBox="0 0 18 18" id="icon_calendar" xmlns="http://www.w3.org/2000/svg"><path d="M6 10H4V8h2v2zm4-2H8v2h2V8zm4 0h-2v2h2V8zm0 4h-2v2h2v-2zm-4 0H8v2h2v-2zm-4 0H4v2h2v-2zM18 2v16H0V2h1V1c0-.5.5-1 1-1s1 .5 1 1v1h5V1c0-.5.5-1 1-1s1 .5 1 1v1h5V1c0-.5.5-1 1-1s1 .5 1 1v1h1zm-2 14V6H2v10h14z"/></symbol><symbol viewBox="0 0 18 18" id="icon_cell" xmlns="http://www.w3.org/2000/svg"><path d="M1 1v15h16V1H1zm5 7H3V6h3v2zm0 1v2H3V9h3zm1 0h8v2H7V9zm0-1V6h8v2H7zm8-5v2H3V3h12zM3 12h3v2H3v-2zm4 2v-2h8v2H7z"/></symbol><symbol viewBox="0 0 18 18" id="icon_check_list" xmlns="http://www.w3.org/2000/svg"><path d="M18 4H7V2h11v2zm0 4H7v2h11V8zm0 6H7v2h11v-2zM2.8 10.8L0 7.9l1.1-1 1.8 1.8L5.5 6l1 1-3.7 3.8zm0-6L0 2l1.1-1 1.8 1.8L5.5 0l1 1-3.7 3.8z"/></symbol><symbol viewBox="0 0 12 12" id="icon_child_issue_arrow" xmlns="http://www.w3.org/2000/svg"><path d="M12 8L7 4v3H2V0H0v9h7v3z"/></symbol><symbol viewBox="0 0 18 18" id="icon_code" xmlns="http://www.w3.org/2000/svg"><path d="M6.8 0c.1 0 .2.1.2.2v1.4c0 .1-.1.2-.2.2h-.7c-.6 0-1 .3-1 .9v3.5c0 1.6-.4 2.3-1.6 2.7 1.2.4 1.6 1 1.6 2.7v3.6c0 .6.3.9 1 .9h.7c.1 0 .2.1.2.2v1.4c0 .2-.1.3-.2.3H5.5c-1.7 0-2.7-.9-2.7-2.6v-3.7c0-1.1-.5-1.7-1.5-1.7-.2 0-.3-.1-.3-.2V8.1c0-.1.1-.2.2-.2 1.1 0 1.5-.5 1.5-1.7V2.6C2.7.9 3.7 0 5.4 0h1.4zm5.7 0c1.7 0 2.7.9 2.7 2.6v3.6c0 1.1.5 1.7 1.5 1.7.2 0 .3.1.3.2v1.7c0 .1-.1.2-.2.2-1.1 0-1.5.5-1.5 1.7v3.7c0 1.7-1 2.6-2.7 2.6h-1.3c-.1 0-.2-.1-.2-.2v-1.4c0-.1.1-.2.2-.2h.7c.6 0 1-.3 1-.9v-3.6c0-1.6.5-2.3 1.6-2.7-1.2-.4-1.6-1-1.6-2.7V2.8c0-.6-.3-.9-1-.9h-.7c-.1 0-.2-.1-.2-.2V.2c-.1-.1 0-.2.1-.2h1.3z"/></symbol><symbol viewBox="0 0 18 18" id="icon_comment" xmlns="http://www.w3.org/2000/svg"><path d="M15 0H3C1.3 0 0 1.3 0 3v8c0 1.7 1.3 3 3 3h5v4l5-4h2c1.7 0 3-1.3 3-3V3c0-1.7-1.3-3-3-3zM5 8c-.6 0-1-.4-1-1s.4-1 1-1 1 .4 1 1-.4 1-1 1zm4 0c-.6 0-1-.4-1-1s.4-1 1-1 1 .4 1 1-.4 1-1 1zm4 0c-.6 0-1-.4-1-1s.4-1 1-1 1 .4 1 1-.4 1-1 1z"/></symbol><symbol viewBox="0 0 18 18" id="icon_comment_collapse_all" xmlns="http://www.w3.org/2000/svg"><path d="M0 0h18v3H0zm11 10h2.7c.2 0 .4-.3.2-.5L9.2 4.1c-.1-.1-.3-.1-.4 0L4.1 9.5c-.2.2-.1.5.2.5H7v6H6v2h6v-2h-1v-6zM0 7h2v2H0zm0-3h2v2H0zm0 6h2v2H0zm0 3h2v2H0zm0 3h2v2H0zm3 0h2v2H3zm10 0h2v2h-2zm3-3h2v2h-2zm0 3h2v2h-2zm0-6h2v2h-2zm0-3h2v2h-2zm0-3h2v2h-2z"/></symbol><symbol viewBox="0 0 18 18" id="icon_comment_expand_all" xmlns="http://www.w3.org/2000/svg"><path d="M0 0h18v3H0zm0 4h5v3H0zm0 4h5v3H0zm13-4h5v3h-5z"/><path d="M13.7 13H11V5H7v8H4.3c-.2 0-.4.3-.2.5l4.7 4.4c.1.1.3.1.4 0l4.7-4.4c.2-.2.1-.5-.2-.5z"/><path d="M13 8h5v3h-5z"/></symbol><symbol viewBox="0 0 18 18" id="icon_compare" xmlns="http://www.w3.org/2000/svg"><path clip-rule="evenodd" d="M17 11h-2v4H6.9c.1-.3.2-.7.2-1 0-.3-.1-.7-.2-1H13v-2h-2l3-3 3 3zM5 7V5h6.1c-.1-.3-.2-.6-.2-1s.1-.7.2-1H3v4H1l3 3 3-3H5zm9-.5c1.4 0 2.5-1.1 2.5-2.5 0-.7-.3-1.3-.7-1.7-.5-.5-1.1-.7-1.8-.7-1.4 0-2.5 1.1-2.5 2.5 0 .7.3 1.3.7 1.7.5.4 1.1.7 1.8.7zM15.1 3c.3.3.4.6.4 1 0 .8-.7 1.5-1.5 1.5-.4 0-.8-.2-1-.4-.3-.3-.4-.6-.4-1 0-.8.7-1.5 1.5-1.5.3-.1.7.1 1 .4zM4 16.4c1.4 0 2.5-1.1 2.5-2.5 0-.7-.3-1.3-.7-1.7-.5-.5-1.1-.7-1.8-.7-1.4 0-2.5 1.1-2.5 2.5 0 .7.3 1.3.7 1.7.5.5 1.1.7 1.8.7zm1.1-3.5c.3.3.4.6.4 1 0 .8-.7 1.5-1.5 1.5-.4 0-.8-.2-1.1-.4-.3-.3-.4-.6-.4-1 0-.8.7-1.5 1.5-1.5.4 0 .8.2 1.1.4z"/></symbol><symbol viewBox="0 0 18 18" id="icon_contract" xmlns="http://www.w3.org/2000/svg"><path d="M17.7 13h-2l-.9-6.4c.5-.4.5-.9-.2-1.2 2.4 0 2.9-2 1.3-2.3 3.7-1.2 1.6-4.4-2-2.5-.7.4-1.3.9-1.9 1.5 0 0-.2-.1-.3-.1h-.2l-9 .1c-.8 0-1.5.3-1.9.8C.2 3.3-.1 4 0 5.1L.4 8h3l1 7.2c.2 1.7 1.4 2.8 3.2 2.8h8c.7-.1 1.3-.4 1.8-.9.5-.6.8-1.4.6-2.2l-.3-1.9zM2.2 6L2 4.8c0-.3 0-.5.1-.6.1-.1.2-.1.4-.1.3 0 .4.3.5.6L3.1 6h-.9zm4.1 8.9L4.9 4.4c0-.1 0-.2-.1-.3h5.9c-1.2 1.8-2 3.8-2.5 5.2l-1 1.7c-.1.2-.4.9-.2 1 .2.1.7-.6.8-.7l1.1-1.8c.5-.5.9-.5 1.5-.5 1.2 0 2.2-.3 2.7-.8l.7 4.8H7.9l.3 2.1c0 .3 0 .5-.2.6-.1.2-.2.3-.4.3-.8 0-1.1-.4-1.3-1.1zm9.5.9c-.1.1-.3.2-.5.2h-5.2c.1-.3.1-.7.1-1H16v.1c0 .3 0 .5-.2.7z"/></symbol><symbol viewBox="0 0 18 18" id="icon_copy" xmlns="http://www.w3.org/2000/svg"><path d="M5 7h8v1H5V7zm0 4h8v-1H5v1zm0 3h8v-1H5v1zM17 3v13c0 1.1-.9 2-2 2H3c-1.1 0-2-.9-2-2V3c0-1.1.9-2 2-2h1c0-.6.4-1 1-1h8c.6 0 1 .4 1 1h1c1.1 0 2 .9 2 2zM6 3h6V2H6v1zm9 0h-1v1c0 .6-.4 1-1 1H5c-.6 0-1-.4-1-1V3H3v13h12V3z"/></symbol><symbol viewBox="0 0 14 14" id="icon_copy_small" xmlns="http://www.w3.org/2000/svg"><path d="M4 6h6v1H4V6zm0 3h6V8H4v1zm0 2h6v-1H4v1zm9-7.5V12c0 1.1-.9 2-2 2H3c-1.1 0-2-.9-2-2V3.5c0-1.1.9-2 2-2h1c0-.6.4-1 1-1h4c.6 0 1 .4 1 1h1c1.1 0 2 .9 2 2zM5 3h4V2H5v1zm6.5 0H10v.4c0 .6-.4 1-1 1H5c-.6 0-1-.4-1-1V3H2.5v9.5h9V3z"/></symbol><symbol viewBox="0 0 18 18" id="icon_download" xmlns="http://www.w3.org/2000/svg"><path d="M13 9V0H5v9H1l8 9 8-9z"/></symbol><symbol viewBox="0 0 18 18" id="icon_edit" xmlns="http://www.w3.org/2000/svg"><path d="M16 .8c-1.3-.8-2.6-1-2.9-.5L6 12.5V16H1v2h5l4.8-2.8L17.9 3c.3-.4-.5-1.4-1.9-2.2zM7.7 15v-2.1l.2-.3 1.3-.1.5 1.1-.1.4-1.9 1z"/></symbol><symbol viewBox="0 0 18 18" id="icon_edit_status" xmlns="http://www.w3.org/2000/svg"><path d="M16 6h-.2L18 2.4c.2-.4-.5-1.2-1.5-1.8s-2.1-.8-2.3-.4L10.8 6H2C.9 6 0 6.9 0 8v8c0 1.1.9 2 2 2h14c1.1 0 2-.9 2-2V8c0-1.1-.9-2-2-2zm0 10H2V8h7.7l-1 1.7v.3H4v1h4.7v2H4v1h5v-.2l3.4-2L14.7 8H16v8zm-4.3-5.6l-.3.5-1.4.8v-1.6l.3-.5c.3 0 .6 0 .9.2.3.1.4.3.5.6z"/></symbol><symbol viewBox="0 0 18 18" id="icon_emoji" xmlns="http://www.w3.org/2000/svg"><path d="M9 0C4.1 0 0 4.1 0 9s4.1 9 9 9 9-4 9-9-4.1-9-9-9zm0 16.3c-4 0-7.3-3.2-7.3-7.3S4.9 1.7 9 1.7 16.3 5 16.3 9 13 16.3 9 16.3z"/><path d="M6.6 6.4c.3 0 .4-.1.6-.3.3-.3.3-.9-.1-1.1-1.4-1.2-3-.6-3.6 0-.4.4-.3.9 0 1.2.4.4.9.3 1.2 0 .1-.2.7-.5 1.3-.1.1.2.3.3.6.3zM14.4 5c-1.3-1.2-3-.7-3.6 0-.4.4-.3.9 0 1.2.4.4.9.3 1.2 0 .1-.1.7-.4 1.3 0 .2.2.4.2.5.2.3 0 .4-.1.6-.3.4-.3.4-.9 0-1.1zM12 7.9c-.4-.3-.9-.2-1.2.3-.2.3-.7 1-1.8 1-1 0-1.6-.6-1.8-.9-.2-.5-.7-.6-1.2-.4-.4.2-.5.7-.3 1.2.4.7 1.6 1.8 3.2 1.8 1.9 0 2.9-1.2 3.2-1.7.3-.5.2-1-.1-1.3z"/></symbol><symbol viewBox="0 0 18 18" id="icon_files" xmlns="http://www.w3.org/2000/svg"><path d="M16 12c.6 0 1-.4 1-1V3c0-.6-.4-1-1-1H7V1c0-.6-.4-1-1-1H2c-.6 0-1 .4-1 1v10c0 .6.4 1 1 1h6v.2c-.8.3-1.5 1-1.8 1.8H1v2h5.2c.4 1.2 1.5 2 2.8 2s2.4-.8 2.8-2H17v-2h-5.2c-.3-.8-1-1.5-1.8-1.8V12h6zm-7 4c-.6 0-1-.4-1-1s.4-1 1-1 1 .4 1 1-.4 1-1 1z"/></symbol><symbol viewBox="0 0 18 18" id="icon_fire" xmlns="http://www.w3.org/2000/svg"><path d="M4.9 4C4 2.9 3.5 1.6 4.6.8S5.9 0 5.9 0s-.3 1.2 0 2c.5 1.2-.7 1.4-1 2zm7.7.9c-2-2.3-.8-4.9-.8-4.9C9.4.4 7 3.7 8.3 7c1.2 2.9-1.7 3.2-2.2.3-4.4 5.2-1.3 10.4 3 10.7-.5-.6-2-1.3-1.6-3.2s2.2-.5 3.2-2.2c.6-.9.7-3 .7-3s1.4 3.7.5 5.4c-.7 1.4-1.9 2.5-2.4 3 4.2-.1 6.3-2.7 6.5-5.1.2-2.5-1-5.3-3.4-8z"/></symbol><symbol viewBox="0 0 18 18" id="icon_gantt" xmlns="http://www.w3.org/2000/svg"><path d="M9 8h7v2H9zM5 4h7v2H5z"/><path d="M2 0H0v18h18v-2H2z"/><path d="M12 12h6v2h-6zM3 0h7v2H3z"/></symbol><symbol viewBox="0 0 16 27" id="icon_git" xmlns="http://www.w3.org/2000/svg"><path d="M8 21h1v6H8v-6zM1.5 3h13c.3 0 .5-.2.5-.5v-2c0-.3-.2-.5-.5-.5h-13c-.3 0-.5.2-.5.5v2c0 .3.2.5.5.5zm.1 4h12.9c.2 0 .5-.2.5-.5v-2c0-.3-.3-.5-.6-.5H1.6c-.3 0-.6.2-.6.5v2c0 .3.3.5.6.5zm-.5 17.2c0 2.8 2.6 2.8 3 2.8.7 0 1.3-.1 1.9-.3V24H4v1h1v1c-.2.1-.5.2-.8.2-.6 0-2-.2-2-1.9 0-2.4 1.5-2.4 2.1-2.4.4 0 1.2.1 1.7.3v-.9c-.5-.2-1.3-.3-1.8-.3-.9 0-3.1.2-3.1 3.2zM10 22h2v5h1v-5h2v-1h-5v1zm6-8v2h-5.2c-.4 1.2-1.5 2-2.8 2-1.3 0-2.4-.8-2.8-2H0v-2h5.1c.3-.8 1-1.5 1.8-1.8V11H1.6c-.3 0-.6-.2-.6-.5v-2c0-.3.3-.5.6-.5h12.9c.2 0 .5.2.5.5v2c0 .3-.3.5-.6.5H9v1.2c.8.3 1.5 1 1.8 1.8H16zm-7 1c0-.6-.4-1-1-1s-1 .4-1 1 .4 1 1 1c.5 0 1-.4 1-1z"/></symbol><symbol viewBox="0 0 18 18" id="icon_handle" xmlns="http://www.w3.org/2000/svg"><path clip-rule="evenodd" d="M2 2v2h14V2H2zm0 6h14V6H2v2zm0 4h14v-2H2v2zm0 4h14v-2H2v2z"/></symbol><symbol viewBox="0 0 18 18" id="icon_help" xmlns="http://www.w3.org/2000/svg"><path d="M9.9 12.5H8.3c-.1 0-.1 0-.2-.1 0 0-.1-.1-.1-.2 0-1.1 0-1.8.1-2.1 0-.3.1-.6.3-.9.1-.2.3-.4.5-.6s.6-.4 1.3-.7 1.2-.6 1.4-.8c.2-.2.4-.4.6-.7.2-.3.3-.7.3-1 0-.7-.3-1.3-.8-1.7-.7-.5-1.4-.8-2.2-.8-1.8 0-2.9.9-3.3 2.9 0 .2-.2.2-.3.2l-1.7-.3c-.1 0-.1 0-.2-.1v-.2C4.6 2.5 6.5 1 9.6 1c1.6 0 2.9.4 3.9 1.2S15 4.1 15 5.3c0 1.6-1 3-3.1 3.9-1 .5-1.4.8-1.5.9-.2.2-.2.5-.2.9v1.1c0 .1 0 .1-.1.2 0 .1-.1.2-.2.2zm-.8 1.2c-.9 0-1.6.7-1.6 1.6S8.2 17 9.1 17c.9 0 1.6-.7 1.6-1.6s-.7-1.7-1.6-1.7z"/></symbol><symbol viewBox="0 0 18 18" id="icon_home" xmlns="http://www.w3.org/2000/svg"><path d="M17.7 8.3l-8-8c-.4-.4-1-.4-1.4 0l-8 8c-.4.4-.4 1 0 1.4s1 .4 1.4 0l.3-.3V17c0 .5.4 1 1 1h4v-7h4v7h4c.5 0 1-.4 1-1V9.4l.3.3c.2.2.4.3.7.3s.5-.1.7-.3c.4-.4.4-1 0-1.4z"/></symbol><symbol viewBox="0 0 24 16" id="icon_inline_comment" xmlns="http://www.w3.org/2000/svg"><path d="M20 6V3c0-1.7-1.3-3-3-3H5C3.3 0 2 1.3 2 3v10c0 1.7 1.3 3 3 3h12c1.7 0 3-1.3 3-3v-3l4-2-4-2zM7 9c-.6 0-1-.4-1-1s.4-1 1-1 1 .4 1 1-.4 1-1 1zm4 0c-.6 0-1-.4-1-1s.4-1 1-1 1 .4 1 1-.4 1-1 1zm4 0c-.6 0-1-.4-1-1s.4-1 1-1 1 .4 1 1-.4 1-1 1z"/></symbol><symbol viewBox="0 0 14 14" id="icon_intercom" xmlns="http://www.w3.org/2000/svg"><path d="M11.1 1H2.9C1.8 1 1 1.8 1 2.8v7.4c0 1 .8 1.8 1.9 1.8H10l3 2V2.8c0-1-.8-1.8-1.9-1.8zm.1 8c-.1.1-1.4 1.4-4.2 1.4-2.8 0-4.1-1.3-4.2-1.4 0-.1-.1-.2-.1-.4 0-.1.1-.3.2-.4.2-.2.5-.2.7 0 0 0 1.1 1.1 3.4 1.1s3.5-1.1 3.5-1.1c.2-.2.5-.2.7 0 .2.3.2.6 0 .8z"/></symbol><symbol viewBox="0 0 18 18" id="icon_issues" xmlns="http://www.w3.org/2000/svg"><path d="M0 1v16c0 .6.4 1 1 1h16c.6 0 1-.4 1-1V1c0-.6-.4-1-1-1H1C.4 0 0 .4 0 1zm5 14H3v-2h2v2zm0-5H3V8h2v2zm0-5H3V3h2v2zm10 10H7v-2h8v2zm0-5H7V8h8v2zm0-5H7V3h8v2z"/></symbol><symbol viewBox="0 0 18 18" id="icon_issues_add" xmlns="http://www.w3.org/2000/svg"><path d="M18 2.6v.9h-2.2v2.2h-.9V3.5h-2.2v-.9h2.2V.4h.9v2.2H18zm-4 4h2.2v10.5c0 .5-.4.9-.9.9H.9c-.5 0-.9-.4-.9-.9v-14c0-.5.4-.9.9-.9h11v2.2H14v2.2zM5.7 7h7V5.3h-7V7zm-.9 6.2H3.1V15h1.8v-1.8zm0-4H3.1V11h1.8V9.2zm0-3.9H3.1V7h1.8V5.3zm8.4 7.9H5.7V15h7.5v-1.8zm0-4H5.7V11h7.5V9.2z"/></symbol><symbol viewBox="0 0 18 18" id="icon_italic" xmlns="http://www.w3.org/2000/svg"><path d="M14.4 0c.2 0 .2.1.2.3l-.4 2.1c0 .2-.2.3-.3.3h-1.2c-.1 0-.2.1-.2.2L9.7 15.2c0 .1 0 .2.1.2H11c.2 0 .2.1.2.3l-.4 2.1c0 .2-.2.3-.3.3H4.8c-.2 0-.2-.1-.2-.3l.4-2.1c0-.2.2-.3.3-.3h1.2c.1 0 .2-.1.2-.2L9.4 2.8c0-.1 0-.2-.1-.2H8.1c-.2 0-.2-.1-.2-.3L8.3.2c.1-.1.2-.2.3-.2h5.8z"/></symbol><symbol viewBox="0 0 18 17.33" id="icon_kanban" xmlns="http://www.w3.org/2000/svg"><defs><style>.btcls-1{fill:#7f8080}</style></defs><g id="bticon"><g id="btList-View"><g id="btDashboard---List"><g id="btGroup-2"><g id="btPage-1"><path id="btFill-1" class="btcls-1" d="M0 17.33h4.12V0H0v17.33z"/><path id="btFill-2" class="btcls-1" d="M6.94 8.35h4.12V0H6.94v8.35z"/><path id="btFill-3" class="btcls-1" d="M13.88 11.42H18V0h-4.12v11.42z"/></g></g></g></g></g></symbol><symbol viewBox="0 0 18 18" id="icon_launch_box" xmlns="http://www.w3.org/2000/svg"><path d="M0 0h4v4H0zm7 0h4v4H7zm7 0h4v4h-4zm0 7h4v4h-4zm0 7h4v4h-4zm-7 0h4v4H7zm-7 0h4v4H0zm0-7h4v4H0zm7 0h4v4H7z"/></symbol><symbol viewBox="0 0 18 18" id="icon_left_arrow" xmlns="http://www.w3.org/2000/svg"><path d="M10.3 2.6L3 9l7.3 6.4c.3.2.7 0 .7-.3V12h7V6h-7V2.9c0-.4-.4-.5-.7-.3z"/></symbol><symbol viewBox="0 0 18 18" id="icon_link" xmlns="http://www.w3.org/2000/svg"><path d="M8.7 14.7c-.8 1.4-2.4 2.3-4 2.3-.8 0-1.6-.2-2.3-.6-1.1-.6-1.8-1.6-2.2-2.8S0 11.1.6 10l2.8-4.8c.8-1.4 2.4-2.3 4.1-2.3.8 0 1.6.2 2.3.6 1.1.6 1.8 1.6 2.2 2.8s.2 2.5-.5 3.5l-.7 1.2c-.3 0-.7 0-1-.2-.3-.2-.6-.5-.7-.8l.7-1.2c.4-.6.4-1.3.3-2-.3-.6-.7-1.2-1.4-1.5-.4-.3-.8-.4-1.3-.4-1 0-1.8.5-2.3 1.3L2.4 11c-.4.6-.4 1.3-.3 2 .2.7.6 1.3 1.2 1.6.4.3.9.4 1.4.4.9 0 1.8-.5 2.3-1.3.3.2.5.4.8.6.2.2.6.3.9.4zm9.1-11.2c-.3-1.2-1.1-2.2-2.2-2.8-.6-.5-1.4-.7-2.3-.7-1.6 0-3.2.9-4 2.3.3.1.6.2.9.4.3.2.6.4.8.6.6-.8 1.4-1.3 2.3-1.3.5 0 .9.1 1.3.4.6.4 1.1.9 1.2 1.6.2.7.1 1.4-.3 2l-2.8 4.8c-.7 1.2-2.4 1.7-3.6 1-.6-.4-1.1-.9-1.2-1.6-.2-.7-.1-1.4.3-2L8.9 7c-.1-.4-.3-.7-.7-.9-.3-.2-.7-.2-1-.2l-.7 1.2c-.6 1.1-.8 2.3-.5 3.5.3 1.2 1.1 2.2 2.2 2.8.7.4 1.5.6 2.3.6 1.7 0 3.2-.9 4.1-2.3L17.4 7c.6-1.1.8-2.3.4-3.5z"/></symbol><symbol viewBox="0 0 18 18" id="icon_link_window" xmlns="http://www.w3.org/2000/svg"><path d="M14 5V1H0v12h4v4h14V5h-4zM2 11V3h10v2H4v6H2zm14 4H6v-4h10v4zM6 9V7h10v2H6z"/></symbol><symbol viewBox="0 0 18 18" id="icon_list" xmlns="http://www.w3.org/2000/svg"><path d="M3 4H1V2h2v2zm14-2H5v2h12V2zM3 8H1v2h2V8zm14 0H5v2h12V8zM3 14H1v2h2v-2zm14 0H5v2h12v-2z"/></symbol><symbol viewBox="0 0 18 18" id="icon_list_view" xmlns="http://www.w3.org/2000/svg"><path d="M2 2h14v3H2zm0 5h14v3H2zm0 5h14v3H2z"/></symbol><symbol viewBox="0 0 18.01 18.01" id="icon_mention" xmlns="http://www.w3.org/2000/svg"><path d="M17.79 8a8 8 0 01-.5 2.87 4.68 4.68 0 01-1.39 2 3.17 3.17 0 01-2.06.72 2.5 2.5 0 01-1.51-.46 2.24 2.24 0 01-.85-1.25h-.14A3.51 3.51 0 0110 13.22a3.63 3.63 0 01-1.78.43 3.58 3.58 0 01-2.8-1.15 4.54 4.54 0 01-1-3.12 5 5 0 011.34-3.67A4.84 4.84 0 019.41 4.3a12.64 12.64 0 011.85.15 10.32 10.32 0 011.81.41L12.83 10v.26c0 1.18.38 1.76 1.14 1.76.58 0 1-.37 1.37-1.12a6.89 6.89 0 00.51-2.9 6.87 6.87 0 00-.76-3.3 5.31 5.31 0 00-2.19-2.18 6.7 6.7 0 00-3.25-.77 8.13 8.13 0 00-4.06 1A6.34 6.34 0 003 5.48a9 9 0 00-1 4.16 6.64 6.64 0 001.7 4.9 6.58 6.58 0 004.88 1.71 14.33 14.33 0 005.06-1v1.8a13.07 13.07 0 01-5 1 8.77 8.77 0 01-6.34-2.19A8.11 8.11 0 01.06 9.71a10.4 10.4 0 011.23-5.1A8.44 8.44 0 014.7 1.19 10.15 10.15 0 019.63 0a9 9 0 014.24 1 7 7 0 012.89 2.82A8.51 8.51 0 0117.79 8zM6.5 9.42c0 1.71.67 2.56 2 2.56s2.19-1.07 2.32-3.21L11 6.14A5.88 5.88 0 009.48 6a2.7 2.7 0 00-2.19.93 3.83 3.83 0 00-.79 2.49z"/></symbol><symbol viewBox="0 0 18 18" id="icon_milestone" xmlns="http://www.w3.org/2000/svg"><path d="M14.4 7.1L5 2.6V2c0-.6-.4-1-1-1s-1 .4-1 1v16h2v-5.3l9.4-4.5c.5-.2.5-.9 0-1.1z"/></symbol><symbol viewBox="0 0 18 18" id="icon_multipleissue" xmlns="http://www.w3.org/2000/svg"><path d="M17.9 3c.3-.5-.6-1.5-1.9-2.2s-2.6-1-2.9-.5L7 10.5V16l4.8-2.8L17.9 3zm-7.3 9l-1.8 1v-2.1l.2-.3 1.3-.1.5 1.1-.2.4zM9.8 2H2V0h8.9L9.8 2zm6.2 8.3l2-3.4V16h-2v-5.7zm-3 5.2l2-3.4V18H0V3h9.2L8 5H2v11h11v-.5z"/></symbol><symbol viewBox="0 0 18 18" id="icon_notification" xmlns="http://www.w3.org/2000/svg"><path d="M18 16c0-5-3.4-4.3-3.4-8.6 0-2.3-1.5-4.3-3.6-5V2c0-1.1-.9-2-2-2S7 .9 7 2v.4c-2.1.8-3.6 2.7-3.6 5C3.4 11.7 0 11 0 16h6.2c.4 1.2 1.5 2 2.8 2s2.4-.8 2.8-2H18z"/></symbol><symbol viewBox="0 0 18 19" id="icon_nulab" xmlns="http://www.w3.org/2000/svg"><path d="M14.3 0H3.7C1.6 0 0 1.6 0 3.7v10.7c0 2 1.6 3.7 3.7 3.7h10.7c2 0 3.7-1.6 3.7-3.7V3.7C18 1.6 16.4 0 14.3 0zM8.7 8.9v3H7.4v-3c.1-.9-.6-1.7-1.5-1.8-.9-.1-1.7.6-1.7 1.5v3.2H2.8v-3c0-1.6 1.2-3 2.9-3 1.6 0 3 1.2 3 2.9v.2zm6.5.2c0 1.6-1.3 2.9-2.9 2.9-1.6 0-2.9-1.3-2.9-2.9v-3h1.3v3c-.1.9.6 1.7 1.5 1.7.9.1 1.7-.6 1.7-1.5V6.1h1.3v3z"/></symbol><symbol viewBox="0 0 18 18" id="icon_number_list" xmlns="http://www.w3.org/2000/svg"><path d="M17 4H5V2h12v2zm0 4H5v2h12V8zm0 6H5v2h12v-2zM2.6 4.9V0h-.8c0 .2-.1.3-.2.5 0 .1-.1.2-.3.3-.1.1-.2.1-.4.1S.6 1 .4 1v.7h1.2v3.2h1zm-2.5 3h1v-.4c0-.1.1-.3.1-.4.1 0 .2-.1.3-.2.1-.1.2-.1.4-.1s.4.1.5.2c.1.1.2.3.2.6 0 .1 0 .3-.1.4l-.3.3c-.1.1-.2.2-.3.2-.1.1-.2.2-.4.3-.2.1-.4.3-.6.4-.1.1-.3.3-.4.5-.2.1-.3.3-.4.5s-.1.5-.1.8h3.6v-.9H1.3c.1-.2.3-.3.4-.4s.3-.3.5-.4.3-.2.5-.3.3-.3.4-.4c.1-.1.2-.3.3-.5.1-.1.2-.4.2-.6 0-.2 0-.5-.1-.6-.2-.2-.3-.4-.4-.5-.2-.2-.4-.3-.6-.3-.2-.1-.4-.1-.6-.1-.3 0-.6 0-.8.1-.2.1-.4.3-.6.4-.1.2-.2.4-.3.7s-.1.5-.1.7zM1.5 14v.7h.4c.2 0 .3 0 .4.1.1 0 .2.1.3.2.1.1.1.2.1.4s-.1.4-.2.6c-.2.1-.3.2-.6.2-.1 0-.3 0-.4-.1-.2-.1-.3-.1-.3-.2-.1-.1-.2-.2-.2-.3 0-.1-.1-.2-.1-.4H0c0 .3 0 .5.1.8.1.2.2.4.4.6.2.2.4.3.6.3.2 0 .4.1.7.1.2 0 .5 0 .7-.1l.6-.3c.2-.1.3-.3.4-.5.1-.2.2-.4.2-.7 0-.3-.1-.5-.2-.7-.2-.2-.4-.3-.6-.4.2-.1.4-.2.5-.4.1-.2.2-.4.2-.6 0-.2 0-.4-.1-.6s-.2-.3-.4-.4c-.3-.2-.5-.3-.7-.3-.2-.1-.4-.1-.6-.1-.3 0-.5 0-.7.1-.2.1-.4.2-.5.3s-.3.3-.3.5c-.1.2-.1.4-.1.7h.9c0-.3.1-.5.2-.6s.3-.2.6-.2c.2 0 .3.1.5.2.1.1.2.3.2.5 0 .1 0 .3-.1.3-.1.1-.2.1-.3.2-.2 0-.3.1-.4.1h-.3z"/></symbol><symbol viewBox="0 0 18 18" id="icon_open_browser" xmlns="http://www.w3.org/2000/svg"><path d="M16.1 0H1.9C.8 0 0 .9 0 2v11c0 1.1.8 2 1.9 2H5c.3-.7.7-1.4 1.2-2H2V5h14v4l2 1.3V2c0-1.1-.8-2-1.9-2zM3 3H2V2h1v1zm2 0H4V2h1v1zm2 0H6V2h1v1zm11 9.7l-5 3v-2.1c-5.6.7-6.9 4.9-6.8 4.3 1.3-5.8 6.8-6.3 6.8-6.3V9.4l5 3.3z"/></symbol><symbol viewBox="0 0 18 18" id="icon_open_dialog" xmlns="http://www.w3.org/2000/svg"><path d="M16 15c0 .6-.4 1-1 1H3c-.6 0-1-.4-1-1V3c0-.6.4-1 1-1h3V0H3C1.3 0 0 1.3 0 3v12c0 1.7 1.3 3 3 3h12c1.7 0 3-1.3 3-3v-3h-2v3z"/><path d="M9 0v2h5.6l-8.3 8.3 1.4 1.4L16 3.4V9h2V0z"/></symbol><symbol viewBox="0 0 18 18" id="icon_others" xmlns="http://www.w3.org/2000/svg"><path d="M4 9c0 1.1-.9 2-2 2s-2-.9-2-2 .9-2 2-2 2 .9 2 2zm5-2c-1.1 0-2 .9-2 2s.9 2 2 2 2-.9 2-2-.9-2-2-2zm7 0c-1.1 0-2 .9-2 2s.9 2 2 2 2-.9 2-2-.9-2-2-2z"/></symbol><symbol viewBox="0 0 10 10" id="icon_page_back" xmlns="http://www.w3.org/2000/svg"><path d="M6 2H5V.2c0-.2-.3-.3-.5-.1L.1 2.8c-.1.1-.1.3 0 .4L4.6 6c.1.1.4 0 .4-.2V4h1c1.1 0 2 .9 2 2s-.9 2-2 2H2v2h4c2.2 0 4-1.8 4-4S8.2 2 6 2z"/></symbol><symbol viewBox="0 0 18 18" id="icon_paticients" xmlns="http://www.w3.org/2000/svg"><path d="M4.7 9.2C2.3 9.2.3 7.3.3 5S2.2.7 4.6.7 9 2.6 9 5 7 9.2 4.7 9.2zm0-7.3c-1.7 0-3.1 1.4-3.1 3s1.4 3 3.1 3 3.1-1.4 3.1-3-1.4-3-3.1-3z"/><path d="M9.3 13H8.1c.1-1.3-.6-2.5-1.6-3.2-1.2-.6-2.5-.6-3.6.1s-1.7 1.9-1.7 3.2H0c-.1-1.7.8-3.3 2.3-4.2 1.5-.9 3.3-.9 4.8 0 1.4.8 2.3 2.4 2.2 4.1z"/><path d="M13.3 14.2c-2.4 0-4.3-1.9-4.3-4.3s1.9-4.3 4.3-4.3 4.3 1.9 4.3 4.3-1.9 4.3-4.3 4.3zm0-7.3c-1.7 0-3.1 1.4-3.1 3s1.4 3 3.1 3 3.1-1.4 3.1-3-1.4-3-3.1-3z"/><path d="M18 18h-1.2c.1-1.3-.6-2.5-1.7-3.2-1.1-.7-2.4-.7-3.5 0S9.9 16.7 10 18H8.7c-.1-1.7.7-3.4 2.2-4.2 1.5-.9 3.3-.9 4.8 0 1.5.8 2.4 2.5 2.3 4.2z"/></symbol><symbol viewBox="0 0 18 18" id="icon_preview" xmlns="http://www.w3.org/2000/svg"><path d="M16 0H2C.9 0 0 .9 0 2v14c0 1.1.9 2 2 2h14c1.1 0 2-.9 2-2V2c0-1.1-.9-2-2-2zm-2.6 15l-2.8-2.8c-.7.5-1.6.8-2.6.8-2.8 0-5-2.2-5-5s2.2-5 5-5 5 2.2 5 5c0 1-.3 1.9-.8 2.6l2.8 2.8-1.6 1.6zM11 8c0 1.7-1.3 3-3 3S5 9.7 5 8s1.3-3 3-3 3 1.3 3 3z"/></symbol><symbol viewBox="0 0 18 18" id="icon_preview_modal" xmlns="http://www.w3.org/2000/svg"><path d="M12.06 8.24l2.45-2.45 1.08 1.08a.2.2 0 00.34-.13l.33-4.81-4.81.33a.2.2 0 00-.13.34l1.09 1.09L10 6.14zM6.18 9.9l-2.45 2.46-1.08-1.08a.2.2 0 00-.34.13L2 16.22l4.81-.33a.2.2 0 00.13-.34l-1.11-1.09L8.28 12zm9.75 1.5a.2.2 0 00-.34-.13l-1.09 1.09-2.45-2.45L9.95 12l2.45 2.45-1.08 1.08a.2.2 0 00.13.34l4.81.33zM6.92 2.6a.2.2 0 00-.13-.34L2 1.94l.3 4.81a.2.2 0 00.34.13l1.1-1.09 2.45 2.45 2.1-2.1-2.45-2.46z"/></symbol><symbol viewBox="0 0 18 18" id="icon_priority_2" xmlns="http://www.w3.org/2000/svg"><path d="M3.3 9.7c.4.4 1 .4 1.4 0L8 6.4V14c0 .6.4 1 1 1s1-.4 1-1V6.4l3.3 3.3c.4.4 1 .4 1.4 0s.4-1 0-1.4l-5-5c-.1-.1-.2-.2-.3-.2C9.3 3 9.1 3 9 3s-.3 0-.4.1c-.1 0-.2.1-.3.2l-5 5c-.4.4-.4 1 0 1.4z"/></symbol><symbol viewBox="0 0 18 18" id="icon_priority_3" xmlns="http://www.w3.org/2000/svg"><path d="M8.3 3.3c-.4.4-.4 1 0 1.4L11.6 8H4c-.6 0-1 .4-1 1s.4 1 1 1h7.6l-3.3 3.3c-.4.4-.4 1 0 1.4s1 .4 1.4 0l5-5c.1-.1.2-.2.2-.3.1-.1.1-.3.1-.4s0-.3-.1-.4c-.1-.1-.1-.2-.2-.3l-5-5c-.4-.4-1-.4-1.4 0z"/></symbol><symbol viewBox="0 0 18 18" id="icon_priority_4" xmlns="http://www.w3.org/2000/svg"><path d="M14.7 8.3c-.4-.4-1-.4-1.4 0L10 11.6V4c0-.6-.4-1-1-1s-1 .4-1 1v7.6L4.7 8.3c-.4-.4-1-.4-1.4 0s-.4 1 0 1.4l5 5c.1.1.2.2.3.2.1.1.3.1.4.1s.3 0 .4-.1c.1-.1.2-.1.3-.2l5-5c.4-.4.4-1 0-1.4z"/></symbol><symbol viewBox="0 0 18 18" id="icon_project" xmlns="http://www.w3.org/2000/svg"><path d="M16.2 1.8c-.1-.5-.5-.8-1-.8H2.8c-.5 0-.9.3-1 .8L0 10v6c0 .6.4 1 1 1h16c.6 0 1-.4 1-1v-6l-1.8-8.2zM2.1 9.9L3.6 3h10.8l1.5 6.9v.1H12c-.6 0-1 .4-1 1v1H7v-1c0-.6-.4-1-1-1H2.1v-.1z"/></symbol><symbol viewBox="0 0 18 18" id="icon_pull_request" xmlns="http://www.w3.org/2000/svg"><path clip-rule="evenodd" d="M1 3.8C1 2.2 2.2 1 3.7 1 5 1 6 1.9 6.4 3h4c0 .2-.1.5-.1.8 0 .4.1.8.2 1.2H6.2c-.5.9-1.4 1.5-2.5 1.5C2.2 6.5 1 5.3 1 3.8zm16 0c0 1.3-1 2.4-2.2 2.7-.9 4.1-4.2 7.4-8.3 8.3C6.2 16 5.1 17 3.7 17 2.2 17 1 15.8 1 14.3c0-1.5 1.2-2.7 2.8-2.7 1 0 1.8.5 2.3 1.3 3.3-.8 6-3.4 6.8-6.7-.8-.5-1.3-1.3-1.3-2.3 0-1.5 1.2-2.7 2.8-2.7 1.4-.2 2.6 1 2.6 2.6zm-1 0c0-1-.8-1.7-1.8-1.7s-1.8.8-1.8 1.7c0 1 .8 1.7 1.8 1.7S16 4.7 16 3.8z"/></symbol><symbol viewBox="0 0 18 18" id="icon_quote" xmlns="http://www.w3.org/2000/svg"><path d="M18 6.2v.1c-.1 3.6-2.6 8-6.2 8.7-.3.1-.6-.3-.3-.5.8-.8 2-2.4 2.2-4.5-2.1-.2-3.7-1.9-3.7-4 0-2.2 1.8-4 4-4s4 1.8 4 4v.2zM4 2C1.8 2 0 3.8 0 6c0 2.1 1.6 3.8 3.7 4-.2 2.1-1.4 3.7-2.2 4.5-.2.2 0 .6.3.5 3.6-.7 6-5.1 6.2-8.7V6c0-2.2-1.8-4-4-4z"/></symbol><symbol viewBox="0 0 18 18" id="icon_refresh" xmlns="http://www.w3.org/2000/svg"><path d="M16.3 8.9v.4c0 4-3.3 7.3-7.3 7.3-1.7 0-3.3-.6-4.5-1.6l1.3-1.9c.9.7 2 1.2 3.2 1.2 2.8 0 5.1-2.3 5.1-5.1v-.4h-1.8l2.9-5 2.9 5h-1.8zM4 9.8v-.4c0-2.8 2.3-5.1 5.1-5.1 1.2 0 2.4.5 3.2 1.2l1.3-1.9C12.3 2.6 10.7 2 9 2 5 2 1.7 5.3 1.7 9.4v.4H0l2.9 5 2.9-5H4z"/></symbol><symbol viewBox="0 0 18 18" id="icon_release_note" xmlns="http://www.w3.org/2000/svg"><path d="M15 0H3C1.9 0 1 .9 1 2v14c0 1.1.9 2 2 2h12c1.1 0 2-.9 2-2V2c0-1.1-.9-2-2-2zM3 16V2h12v14H3zM5 4h8v1H5V4zm6 4H5V7h6v1zm-6 2h8v1H5v-1zm0 3h3v1H5v-1z"/></symbol><symbol viewBox="0 0 18 18" id="icon_repository" xmlns="http://www.w3.org/2000/svg"><path d="M2 2.5v-2c0-.3.2-.5.5-.5h13c.3 0 .5.2.5.5v2c0 .3-.2.5-.5.5h-13c-.3 0-.5-.2-.5-.5zM2.6 7h12.9c.2 0 .5-.2.5-.5v-2c0-.3-.3-.5-.6-.5H2.6c-.3 0-.6.2-.6.5v2c0 .3.3.5.6.5zM17 14v2h-5.2c-.4 1.2-1.5 2-2.8 2-1.3 0-2.4-.8-2.8-2H1v-2h5.1c.3-.8 1-1.5 1.8-1.8V11H2.6c-.3 0-.6-.2-.6-.5v-2c0-.3.3-.5.6-.5h12.9c.2 0 .5.2.5.5v2c0 .3-.3.5-.6.5H10v1.2c.8.3 1.5 1 1.8 1.8H17zm-7 1c0-.6-.4-1-1-1s-1 .4-1 1 .4 1 1 1c.5 0 1-.4 1-1z"/></symbol><symbol viewBox="0 0 18 18" id="icon_revision" xmlns="http://www.w3.org/2000/svg"><path d="M14.7 4.6l-7.1-2 1.5 3.2C5.6 7.3 3 10.9 3 15h2c0-3.3 2.1-6.2 5-7.4l1.5 3.4 3.2-6.4z"/></symbol><symbol viewBox="0 0 18 18" id="icon_right_arrow" xmlns="http://www.w3.org/2000/svg"><path d="M7.7 15.4L15 9 7.7 2.6c-.3-.2-.7 0-.7.3V6H0v6h7v3.1c0 .4.4.5.7.3z"/></symbol><symbol viewBox="0 0 18 18" id="icon_rss" xmlns="http://www.w3.org/2000/svg"><path d="M4.5 15.8c0 1.2-1 2.3-2.3 2.3S0 17 0 15.8s1-2.3 2.3-2.3 2.2 1 2.2 2.3zM0 6.2v3.4c4.7 0 8.5 3.8 8.5 8.5h3.4C11.8 11.5 6.5 6.2 0 6.2zM0 0v3.4C8.1 3.4 14.7 10 14.7 18H18C18 8.1 9.9 0 0 0z"/></symbol><symbol viewBox="0 0 18 18" id="icon_search" xmlns="http://www.w3.org/2000/svg"><path d="M17.7 16.3L13.5 12c1-1.3 1.5-2.8 1.5-4.5C15 3.4 11.6 0 7.5 0S0 3.4 0 7.5 3.4 15 7.5 15c1.7 0 3.3-.6 4.5-1.5l4.2 4.2c.4.4 1 .4 1.4 0 .5-.4.5-1 .1-1.4zM7.5 13C4.5 13 2 10.5 2 7.5S4.5 2 7.5 2 13 4.5 13 7.5 10.5 13 7.5 13zm0-9.5v1c-1.7 0-3 1.3-3 3h-1c0-2.2 1.8-4 4-4z"/></symbol><symbol viewBox="0 0 18 18" id="icon_settings" xmlns="http://www.w3.org/2000/svg"><path clip-rule="evenodd" d="M16.4 9c0-.5 0-.9-.1-1.3L18 5.9l-1.7-2.8-2.3.5c-.8-.7-1.7-1.3-2.7-1.6l-.6-2H7.3l-.6 2c-1 .3-1.9.9-2.7 1.6l-2.3-.5L0 5.9l1.8 1.7c-.1.5-.2.9-.2 1.4s0 .9.1 1.3L0 12.1l1.7 2.8 2.3-.5c.8.7 1.7 1.3 2.7 1.6l.6 2h3.4l.6-2c1-.3 1.9-.9 2.7-1.6l2.3.6 1.7-2.8-1.8-1.7c.1-.6.2-1 .2-1.5zM6 9c0-1.7 1.3-3 3-3s3 1.3 3 3-1.3 3-3 3-3-1.3-3-3z"/></symbol><symbol viewBox="0 0 18 18" id="icon_side_close" xmlns="http://www.w3.org/2000/svg"><path d="M18 0v18h-2V0h2zM8 2.9V6H1v6h7v3.1c0 .3.4.5.7.3L16 9 8.7 2.6c-.3-.2-.7-.1-.7.3z"/></symbol><symbol viewBox="0 0 18 18" id="icon_side_close_left" xmlns="http://www.w3.org/2000/svg"><path d="M2 0v18H0V0h2zm7.3 2.6L2 9l7.3 6.4c.3.2.7 0 .7-.3V12h7V6h-7V2.9c0-.4-.4-.5-.7-.3z"/></symbol><symbol viewBox="0 0 18 18" id="icon_side_close_right" xmlns="http://www.w3.org/2000/svg"><path d="M18 0v18h-2V0h2zM8 2.9V6H1v6h7v3.1c0 .3.4.5.7.3L16 9 8.7 2.6c-.3-.2-.7-.1-.7.3z"/></symbol><symbol viewBox="0 0 18 18" id="icon_star" xmlns="http://www.w3.org/2000/svg"><path d="M18 7.5c-.1-.2-.2-.3-.4-.3L12 6.3l-2.5-5c-.2-.3-.7-.3-.9 0L6 6.3l-5.6.8c-.2 0-.3.2-.4.4 0 .1 0 .3.2.5l4.1 3.9-1 5.5c0 .2 0 .4.2.5.1.1.3.1.5 0l5-2.6 5 2.6c.1 0 .2.1.2.1.1 0 .2 0 .3-.1.2-.1.2-.3.2-.5l-1-5.5L17.8 8c.2-.2.2-.4.2-.5z"/></symbol><symbol viewBox="0 0 18 18" id="icon_sticker" xmlns="http://www.w3.org/2000/svg"><path d="M9.1 12.4c-.2.1-.4 0-.6 0-1.7 0-2.9-1.1-3.3-1.8-.1-.2-.1-.4-.1-.6.1-.2.2-.4.4-.5.2-.1.4-.1.5-.1.2.1.4.2.5.4.2.3.9 1 2 1h.4c.1 0 .7-.2.9.3.3.4.1 1.1-.7 1.3z"/><path d="M9 0C4 0 0 4 0 9s4.1 9 9 9c.2 0 .5-.1.6-.3s.6-.6 1.2-1.2c2.1-2.1 6-5.9 7-7 .1-.2.2-.4.2-.5-.1-5-4.1-9-9-9zM1.6 9c0-4.1 3.3-7.3 7.3-7.3 3.9 0 7.1 3.1 7.3 7l-.1.1c-1.5.1-3.5.6-4.7 2C10 12.5 10 13.7 9 15.9l-.5.5c-3.8-.3-6.9-3.6-6.9-7.4z"/><path d="M9.4 12.5c.5-.1.7-.5.6-1-.1-.5-.5-.7-1-.6-.9.1-2.2-.7-2.4-1.1-.2-.5-.7-.6-1.1-.4-.4.2-.5.7-.3 1.1.5 1 2.3 2.1 3.7 2.1.1 0 .3-.1.5-.1zM5.9 8c.5 0 .8-.4.8-.8V5.5c0-.5-.4-.8-.8-.8s-.8.4-.8.8V7c0 .5.3 1 .8 1zm5.8 0c.5 0 .8-.4.8-.8V5.5c0-.5-.4-.8-.8-.8s-.8.4-.8.8V7c0 .5.3 1 .8 1z"/></symbol><symbol viewBox="0 0 18 18" id="icon_strike" xmlns="http://www.w3.org/2000/svg"><path d="M18 8h-6.4c-.6-.2-1.2-.4-1.9-.5l-.9-.1c-2.4-.3-3.1-1.2-3.1-2.5 0-1.4.9-2.3 2.8-2.3 1 0 1.8.2 2.5.5.1.1.1.1.1.2v1.6c0 .2.1.3.2.3h2.2c.1 0 .2-.1.2-.3V1.5c0-.1 0-.2-.2-.3C12.4.5 10.5 0 8.6 0 4.9 0 2.7 1.9 2.7 5.1c0 1.2.3 2.1.8 2.9H0v2h6.7c.3.1.7.2 1.1.2l.9.1c2.3.3 3.1 1.2 3.1 2.5 0 1.6-1.2 2.5-3.2 2.5-1 0-1.9-.2-2.9-.6-.1 0-.1-.1-.1-.2v-1.7c0-.2-.1-.3-.2-.3H3c-.1 0-.2.1-.2.3v3.5c0 .2.1.3.2.3 1.5.9 3.3 1.4 5.4 1.4 4.2 0 6.3-2.2 6.3-5.3 0-1.1-.2-1.9-.7-2.7h4V8z"/></symbol><symbol viewBox="0 0 18 18" id="icon_subtasking" xmlns="http://www.w3.org/2000/svg"><path d="M6 11v2H4V8h12V1H0v7h2v7h4v2h12v-6H6zM2 3h12v3H2V3z"/></symbol><symbol viewBox="0 0 16 27" id="icon_svn" xmlns="http://www.w3.org/2000/svg"><path d="M1 2.5v-2c0-.3.2-.5.5-.5h13c.3 0 .5.2.5.5v2c0 .3-.2.5-.5.5h-13c-.3 0-.5-.2-.5-.5zM1.6 7h12.9c.2 0 .5-.2.5-.5v-2c0-.3-.3-.5-.6-.5H1.6c-.3 0-.6.2-.6.5v2c0 .3.3.5.6.5zm1.9 17c-.7-.5-2.5-.3-2.5-1.4 0-.2.1-.5.3-.6.1-.1.4-.2.7-.2.6 0 1.4.2 2 .4v-.9c-.5-.2-1.3-.3-2-.3-.6 0-1.1.1-1.5.4-.3.3-.5.7-.5 1.2 0 .4.1.8.4 1.1.6.7 2.2.9 2.5 1 .3.2.5.6.2.9-.3.4-1.1.4-1.5.4-.6 0-1.1-.2-1.6-.5v1.1c.5.3 1.1.4 1.7.4 1.5 0 2.5-.5 2.5-1.7 0-.4-.1-1-.7-1.3zm4 1.6L6.2 21H5l2 6h1l2-6H8.9l-1.4 4.6zm7.5-.4L12 21h-1v6h1v-4.2l3 4.2h1v-6h-1v4.2zM16 14v2h-5.2c-.4 1.2-1.5 2-2.8 2-1.3 0-2.4-.8-2.8-2H0v-2h5.1c.3-.8 1-1.5 1.8-1.8V11H1.6c-.3 0-.6-.2-.6-.5v-2c0-.3.3-.5.6-.5h12.9c.2 0 .5.2.5.5v2c0 .3-.3.5-.6.5H9v1.2c.8.3 1.5 1 1.8 1.8H16zm-7 1c0-.6-.4-1-1-1s-1 .4-1 1 .4 1 1 1c.5 0 1-.4 1-1z"/></symbol><symbol viewBox="0 0 18 18" id="icon_table" xmlns="http://www.w3.org/2000/svg"><path d="M0 1v16h18V1H0zm6 14H2v-2h4v2zm0-4H2V9h4v2zm0-4H2V5h4v2zm10 7.9H8v-2h8v2zm0-3.9H8V9h8v2zm0-4H8V5h8v2z"/></symbol><symbol viewBox="0 0 18 18" id="icon_tag" xmlns="http://www.w3.org/2000/svg"><path clip-rule="evenodd" d="M17.9 11.2l-9-8.9c0-.1-.1-.2-.3-.3H3.5c-.9.2-1.5.9-1.5 1.8v4.8c0 .1.1.3.3.4l8.9 8.9c.2.2.5.2.7 0l5.9-5.9c.2-.3.2-.6.1-.8zM5.5 6.8c-.7 0-1.3-.6-1.3-1.3 0-.7.6-1.3 1.3-1.3.7 0 1.3.6 1.3 1.3 0 .7-.6 1.3-1.3 1.3z"/></symbol><symbol viewBox="0 0 34 40" id="icon_thumb_file" xmlns="http://www.w3.org/2000/svg"><path d="M25 6V0l9 9h-6c-1.7 0-3-1.3-3-3zm3 5h6v25c0 2.2-1.8 4-4 4H4c-2.2 0-4-1.8-4-4V4c0-2.2 1.8-4 4-4h19v6c0 2.8 2.2 5 5 5zM6 9h15V7H6v2zm0 6h11v-2H6v2zm17 16H6v2h17v-2zm5-6H6v2h22v-2zm0-6H6v2h22v-2z"/></symbol><symbol viewBox="0 0 18 18" id="icon_tile_view" xmlns="http://www.w3.org/2000/svg"><path d="M1 1h6v6H1zm10 0h6v6h-6zM1 11h6v6H1zm10 0h6v6h-6z"/></symbol><symbol viewBox="0 0 18 19" id="icon_typetalk" xmlns="http://www.w3.org/2000/svg"><path d="M14.3 0H3.7C1.6 0 0 1.6 0 3.7v10.7c0 2 1.6 3.7 3.7 3.7h10.7c2 0 3.7-1.6 3.7-3.7V3.7C18 1.6 16.4 0 14.3 0zm-3.5 11.5v1.8h-.1C9.2 13.2 8 12 8 10.3V7.4H6.4V5.6H8v-.9h1.8v.9h1.6v1.8H9.8v2.9c0 .6.3 1.2 1 1.2z"/></symbol><symbol viewBox="0 0 18 18" id="icon_unwatch" xmlns="http://www.w3.org/2000/svg"><path d="M5.2 2.4c1.2-.6 2.5-.9 3.8-.9 4.9 0 9 4.3 9 7 0 1.3-.9 2.9-2.4 4.3l-1.4-1.4c1.1-1 1.8-2.2 1.8-2.8 0-1.1-1.8-3.4-4.3-4.4.8 1 1.3 2.5 1.3 4.3 0 .5-.1 1-.1 1.5l-2.3-2.3c.2-.3.4-.7.4-1.2 0-1.1-.9-2-2-2-.5 0-.9.2-1.2.4L5.2 2.4zM5 7.9v.6c0 1.8.5 3.3 1.3 4.4C3.8 11.9 2 9.6 2 8.5c0-.6.5-1.5 1.3-2.3L1.9 4.7C.7 6 0 7.4 0 8.5c0 2.7 4.1 7 9 7 1.1 0 2.1-.2 3.1-.6L5 7.9zM1.7.2L.2 1.7l16.1 16.1 1.4-1.4L1.7.2z"/></symbol><symbol viewBox="0 0 18 18" id="icon_view_settings" xmlns="http://www.w3.org/2000/svg"><path d="M14 4V2.7c0-1-.8-1.7-1.7-1.7h-.5c-1 0-1.7.8-1.7 1.7V4H1v2h9v1.3c0 1 .8 1.7 1.7 1.7h.5c1 0 1.7-.8 1.7-1.7V6h3V4H14zm-6 6.7C8 9.8 7.2 9 6.3 9h-.6C4.8 9 4 9.8 4 10.7V12H1v2h3v1.3c0 1 .8 1.7 1.7 1.7h.5c1 0 1.7-.8 1.7-1.7V14h9v-2H8v-1.3z"/></symbol><symbol viewBox="0 0 18 18" id="icon_watch" xmlns="http://www.w3.org/2000/svg"><path d="M9 2C4.1 2 0 6.3 0 9s4.1 7 9 7 9-4.3 9-7-4.1-7-9-7zm0 7c-1.1 0-2-.9-2-2s.9-2 2-2 2 .9 2 2-.9 2-2 2zM2 9c0-1.1 1.8-3.4 4.3-4.4C5.5 5.7 5 7.2 5 9c0 1.8.5 3.3 1.3 4.4C3.8 12.4 2 10.1 2 9zm9.7 4.4c.8-1.1 1.3-2.6 1.3-4.4 0-1.8-.5-3.3-1.3-4.4C14.2 5.6 16 7.9 16 9s-1.8 3.4-4.3 4.4z"/></symbol><symbol viewBox="0 0 18 20" id="icon_wiki" xmlns="http://www.w3.org/2000/svg"><path d="M12 0v5h5z"/><path d="M11 0H2c-.6 0-1 .4-1 1v18c0 .6.4 1 1 1h14c.6 0 1-.4 1-1V6h-6V0zm0 11.8c0 .1 0 .2.1.4s.1.3.1.4.1.3.1.5 0 .3.1.4 0 .2 0 .3v-.3c0-.1 0-.3.1-.4s.1-.3.1-.5.1-.3.1-.5.1-.3.1-.4v-.3l1-4.7h1.8l-2.1 8.6h-2.1l-1.1-4.2c0-.1 0-.1-.1-.2s0-.2-.1-.4-.1-.3-.1-.4.1-.3.1-.5-.1-.2-.1-.3V9v.3c0 .1 0 .2-.1.4s0 .3-.1.4-.1.3-.1.4 0 .3-.1.4 0 .2-.1.3l-1 4.2h-2L3.4 6.7h1.8l1 4.7v.3c0 .1 0 .3.1.4s.1.3.1.5.1.3.1.5.1.3.1.4 0 .2.1.3v-.3c0-.1 0-.3.1-.4s0-.3.1-.5.1-.3.1-.4 0-.3.1-.4 0-.2 0-.2l1.2-4.8h1.6l1.2 4.8c-.1 0-.1.1-.1.2z"/></symbol></svg>